<svg fill="#523572" height="800" width="800" xmlns="http://www.w3.org/2000/svg" viewBox="0 0 496 496" stroke="#523572"><path d="M424 352c0-11.912-5.336-22.504-13.624-29.84 3.528-5.128 5.624-11.328 5.624-18.008v-4.28c0-3.432-.552-6.816-1.64-10.072l-34.008-102.04A63.92 63.92 0 0 0 319.64 144h-26.48C309.504 130.792 320 110.608 320 88V62.032C320 27.824 292.168 0 257.968 0h-19.936C203.824 0 176 27.824 176 62.032V88c0 22.608 10.496 42.792 26.84 56h-26.48a63.92 63.92 0 0 0-60.712 43.76L81.64 289.792A31.738 31.738 0 0 0 80 299.864v4.28c0 6.688 2.088 12.888 5.624 18.016C77.336 329.496 72 340.088 72 352H40v128h128v16h160v-16h128V352h-32zm-16 0h-48c0-7.96 3.944-14.984 9.928-19.352A31.82 31.82 0 0 0 384.152 336c5.016 0 9.704-1.272 13.928-3.344C404.064 337.024 408 344.04 408 352zm-8.816-57.136c.544 1.616.816 3.304.816 5v4.28c0 3.808-1.408 7.264-3.656 10C392.432 312.872 388.336 312 384 312c-4.28 0-8.32.856-12.192 2.104a16.039 16.039 0 0 1-2.376-4.064l-29.936-74.84 34.12-17.056 25.568 76.72zm-41.344 27.12C349.432 329.32 344 339.992 344 352h-16V249.552l26.568 66.432c.864 2.16 2.008 4.128 3.272 6zM192 62.024C192 36.648 212.648 16 238.032 16h19.936C283.352 16 304 36.648 304 62.032v3.096c-4.344-3.664-8.248-7.92-11.536-12.856A27.467 27.467 0 0 0 269.544 40h-43.096c-9.232 0-17.8 4.584-23.184 12.68-3.128 4.696-6.968 8.856-11.264 12.464v-3.12zM192 88v-3.432c9.784-5.768 18.296-13.6 24.864-23.44A11.495 11.495 0 0 1 226.456 56h43.096c3.864 0 7.456 1.92 9.872 5.552 6.312 9.464 14.8 17.256 24.576 23.016V88c0 30.872-25.128 56-56 56s-56-25.128-56-56zm86.032 72c-4.416 9.296-16.144 16-30.032 16s-25.616-6.704-30.032-16h60.064zM96 299.872c0-1.704.272-3.392.816-5.008l25.568-76.72 34.12 17.064-29.936 74.832a15.878 15.878 0 0 1-2.384 4.072C120.32 312.856 116.28 312 112 312c-4.336 0-8.432.872-12.344 2.152-2.248-2.736-3.656-6.192-3.656-10v-4.28zm1.92 32.784c4.232 2.072 8.912 3.344 13.928 3.344 5.072 0 9.904-1.2 14.216-3.352C132.056 337.016 136 344.04 136 352H88c0-7.96 3.936-14.976 9.92-19.344zM168 464H56v-96h16v16h16v-16h48v16h16v-16h16v96zm0-112h-16c0-12.016-5.432-22.68-13.848-30.016 1.264-1.872 2.408-3.84 3.28-6.008L168 249.544V352zm72 128h-56v-16h56v16zm72 0h-56v-16h56v16zm0-32h-56v-88h-16v88h-56v-80.808c18.232-3.72 32-19.88 32-39.192h64c0 19.312 13.768 35.472 32 39.192V448zm-128-97.472V328h16c0 10.416-6.712 19.216-16 22.528zm128 0c-9.296-3.312-16-12.112-16-22.528h16v22.528zM312 200v112H184V200h-16v6.456l-5.536 13.832-34.976-17.488 3.328-9.984A47.955 47.955 0 0 1 176.36 160h24.608c4.456 18.232 23.848 32 47.032 32 23.184 0 42.568-13.768 47.032-32h24.608a47.934 47.934 0 0 1 45.536 32.824l3.328 9.984-34.976 17.488-5.528-13.84V200h-16zm128 264H328v-96h16v16h16v-16h48v16h16v-16h16v96z"/></svg>